<svg xmlns="http://www.w3.org/2000/svg" width="93" height="62" viewBox="0 0 93 62"><defs><style>.a{fill:#fff;}</style></defs><path class="a" d="M84.281,64H8.719C3.9,64,0,67.47,0,71.75v46.5C0,122.53,3.9,126,8.719,126H84.281C89.1,126,93,122.53,93,118.25V71.75C93,67.47,89.1,64,84.281,64Zm0,7.75v6.588c-4.073,2.948-10.566,7.532-24.446,17.194-3.059,2.139-9.119,7.277-13.335,7.217-4.216.061-10.277-5.079-13.335-7.217C19.287,85.872,12.792,81.287,8.719,78.338V71.75ZM8.719,118.25V88.283c4.162,2.947,10.065,7.082,19.061,13.344,3.97,2.778,10.923,8.91,18.72,8.873,7.759.037,14.624-6.006,18.719-8.872,9-6.262,14.9-10.4,19.063-13.345V118.25Z" transform="translate(0 -64)"/></svg>