<svg xmlns="http://www.w3.org/2000/svg" width="76" height="85" viewBox="0 0 76 85"><defs><style>.a{fill:#fff;}</style></defs><path class="a" d="M49.9,13.281c-7.293,0-13.85-5.312-24.034-5.312a29.91,29.91,0,0,0-11.982,2.518A8.871,8.871,0,0,0,14.2,7.046C13.815,3.25,11.009.265,7.6.017,3.45-.284,0,3.392,0,7.969a8.172,8.172,0,0,0,3.563,6.9V82.344A2.527,2.527,0,0,0,5.938,85H8.313a2.527,2.527,0,0,0,2.375-2.656V68.491A37.336,37.336,0,0,1,29.662,63.75c7.293,0,13.85,5.312,24.034,5.312a32.083,32.083,0,0,0,19.081-6.637A8.241,8.241,0,0,0,76,55.757V15.927c0-5.721-5.235-9.59-9.931-7.324C60.74,11.174,55.165,13.281,49.9,13.281Zm18.974,42.5A25.957,25.957,0,0,1,53.7,61.094c-8.9,0-15.141-5.312-24.034-5.312-6.436,0-14.306,1.561-18.974,3.984V21.25a25.958,25.958,0,0,1,15.179-5.313c8.9,0,15.141,5.313,24.034,5.313,6.423,0,14.3-2.883,18.974-5.313Z" transform="translate(0 0)"/></svg>