<svg xmlns="http://www.w3.org/2000/svg" width="85" height="85" viewBox="0 0 85 85"><defs><style>.a{fill:#fff;}</style></defs><path class="a" d="M93,50.42A42.5,42.5,0,0,1,23.827,83.59a4.11,4.11,0,0,1-.315-6.1l1.931-1.931a4.12,4.12,0,0,1,5.465-.34A31.534,31.534,0,1,0,28.9,27.525l8.7,8.7A2.742,2.742,0,0,1,35.655,40.9H10.742A2.742,2.742,0,0,1,8,38.161V13.249a2.742,2.742,0,0,1,4.681-1.939l8.461,8.461A42.5,42.5,0,0,1,93,50.42Zm-31,13.5,1.683-2.164a4.113,4.113,0,0,0-.721-5.772L55.984,50.56V32.677a4.113,4.113,0,0,0-4.113-4.113H49.129a4.113,4.113,0,0,0-4.113,4.113V55.924l11.209,8.718A4.113,4.113,0,0,0,62,63.921Z" transform="translate(-8 -8)"/></svg>