<?xml version="1.0" encoding="UTF-8" standalone="no"?>
<svg
   xmlns:dc="http://purl.org/dc/elements/1.1/"
   xmlns:cc="http://creativecommons.org/ns#"
   xmlns:rdf="http://www.w3.org/1999/02/22-rdf-syntax-ns#"
   xmlns:svg="http://www.w3.org/2000/svg"
   xmlns="http://www.w3.org/2000/svg"
   xmlns:sodipodi="http://sodipodi.sourceforge.net/DTD/sodipodi-0.dtd"
   xmlns:inkscape="http://www.inkscape.org/namespaces/inkscape"
   version="1.1"
   x="0px"
   y="0px"
   viewBox="0 0 47.499001 28.5991"
   enable-background="new 0 0 100 100"
   xml:space="preserve"
   id="svg90"
   sodipodi:docname="cloudy.svg"
   inkscape:version="0.92.4 (33fec40, 2019-01-16)"
   width="47.499001"
   height="28.5991"><metadata
     id="metadata96"><rdf:RDF><cc:Work
         rdf:about=""><dc:format>image/svg+xml</dc:format><dc:type
           rdf:resource="http://purl.org/dc/dcmitype/StillImage" /><dc:title /></cc:Work></rdf:RDF></metadata><defs
     id="defs94" /><sodipodi:namedview
     pagecolor="#ffffff"
     bordercolor="#666666"
     borderopacity="1"
     objecttolerance="10"
     gridtolerance="10"
     guidetolerance="10"
     inkscape:pageopacity="0"
     inkscape:pageshadow="2"
     inkscape:window-width="1853"
     inkscape:window-height="1025"
     id="namedview92"
     showgrid="false"
     inkscape:zoom="6.712"
     inkscape:cx="21.557"
     inkscape:cy="-9.268655"
     inkscape:window-x="67"
     inkscape:window-y="27"
     inkscape:window-maximized="1"
     inkscape:current-layer="svg90"
     fit-margin-top="0"
     fit-margin-left="0"
     fit-margin-right="0"
     fit-margin-bottom="0" /><path
     stroke-miterlimit="10"
     d="m 37.189,27.599 c 5.142,0 9.31,-4.168 9.31,-9.31 0,-5.142 -4.168,-9.31 -9.31,-9.31 -0.806,0 -1.583,0.113 -2.329,0.305 C 33.8,4.544 29.575,1 24.516,1 19.282,1 14.945,4.794 14.077,9.779 12.925,9.268 11.652,8.978 10.31,8.978 5.168,8.978 1,13.146 1,18.288 c 0,5.142 4.168,9.31 9.31,9.31"
     id="path84"
     inkscape:connector-curvature="0"
     style="fill:#ffffff;stroke:000000;stroke-width:2;stroke-linecap:round;stroke-linejoin:round;stroke-miterlimit:10" /><path
     style="fill:#ffffff;stroke-width:0.14898689"
     d="m 36.820133,28.42517 c -0.168999,-0.06252 -0.385414,-0.285173 -0.480924,-0.494791 -0.146485,-0.321504 -0.126375,-0.444546 0.128557,-0.786535 0.263224,-0.353115 0.444003,-0.419747 1.401479,-0.516558 2.216992,-0.224161 4.00083,-1.11226 5.499436,-2.737941 0.824247,-0.894142 1.62216,-2.313908 1.91772,-3.412301 C 46.300007,16.710182 44.424227,12.522219 40.969102,10.83802 39.427159,10.086401 38.498865,9.915064 36.640957,10.039168 34.447875,10.18566 34.391888,10.182347 34.180751,9.8935999 34.075905,9.7502138 33.882116,9.2613706 33.750108,8.8072812 32.522356,4.5839621 28.327569,1.665904 23.931528,1.9770912 c -2.513274,0.1779097 -5.011955,1.3831562 -6.639206,3.2024415 -0.856728,0.95783 -1.819893,2.7979331 -2.15306,4.1133659 -0.236635,0.9342974 -0.568477,1.4294934 -0.957856,1.4293704 -0.1307,-4.2e-5 -0.606379,-0.143239 -1.057064,-0.318216 -1.021677,-0.396663 -3.4154107,-0.5429011 -4.6593901,-0.284652 -2.9125754,0.604648 -5.5207442,3.169487 -6.2884778,6.184007 -1.19273983,4.683312 2.1559752,9.628589 6.925222,10.226948 1.6245769,0.203823 1.9981339,0.381142 2.0566159,0.976219 0.0712,0.724543 -0.268344,0.945209 -1.4544304,0.945209 -3.2577277,0 -6.8982338,-2.371009 -8.4640555,-5.512515 C 0.38957522,21.233411 0.11136423,20.069291 0.11823383,18.246182 0.13211521,14.562235 1.9684891,11.380187 5.2055684,9.4309056 7.1426582,8.2644425 10.02186,7.7784723 12.220353,8.2469047 c 0.609034,0.1297667 1.12094,0.2202351 1.137568,0.201041 0.01663,-0.019194 0.238719,-0.5386623 0.493535,-1.1543735 1.482861,-3.583033 4.740413,-6.2782616 8.466748,-7.00520469 0.563952,-0.11001737 1.63994,-0.15379891 2.756257,-0.112151 2.126524,0.0793371 3.535674,0.47794647 5.232126,1.48002309 2.058484,1.2159236 4.143335,3.6199129 4.871925,5.6176889 l 0.306766,0.8411448 1.744145,0.00637 c 1.232437,0.0045 2.006409,0.084966 2.638066,0.2742645 3.302519,0.9897191 6.008726,3.5885842 7.076951,6.7962442 0.458737,1.377489 0.566516,3.768364 0.236705,5.250804 -0.490082,2.20282 -1.91853,4.505979 -3.625678,5.845861 -0.94878,0.744665 -2.588737,1.591712 -3.612591,1.865924 -0.931074,0.249362 -2.753324,0.407287 -3.122743,0.270629 z"
     id="path39"
     inkscape:connector-curvature="0" /><path
     style="fill:#ffffff;stroke-width:0.14898689"
     d=""
     id="path41"
     inkscape:connector-curvature="0" /></svg>