<svg xmlns="http://www.w3.org/2000/svg" xmlns:xlink="http://www.w3.org/1999/xlink" version="1.1" x="0px" y="0px" viewBox="0 0 100 125" enable-background="new 0 0 100 100" xml:space="preserve"><path fill="none" stroke="#000000" stroke-width="2" stroke-linecap="round" stroke-linejoin="round" stroke-miterlimit="10" d="  M65.053,35.839c-0.806,0-1.583,0.113-2.329,0.305c-1.06-4.74-5.285-8.284-10.344-8.284c-5.234,0-9.571,3.794-10.439,8.779  c-1.152-0.511-2.425-0.801-3.767-0.801c-5.142,0-9.31,4.168-9.31,9.31s4.168,9.31,9.31,9.31c4.265,0,22.85,0,26.879,0  c5.142,0,9.31-4.168,9.31-9.31S70.195,35.839,65.053,35.839z"/><polygon stroke="#000000" stroke-width="2" stroke-linecap="round" stroke-linejoin="round" stroke-miterlimit="10" points="  47.667,54.46 44.375,65.5 49.875,64.75 46.375,74.875 58.5,60.5 52.125,59.875 55.875,54.46 "/><text x="0" y="115" fill="#000000" font-size="5px" font-weight="bold" font-family="'Helvetica Neue', Helvetica, Arial-Unicode, Arial, Sans-serif">Created by Nook Fulloption</text><text x="0" y="120" fill="#000000" font-size="5px" font-weight="bold" font-family="'Helvetica Neue', Helvetica, Arial-Unicode, Arial, Sans-serif">from the Noun Project</text></svg>