<svg xmlns="http://www.w3.org/2000/svg" xmlns:xlink="http://www.w3.org/1999/xlink" version="1.1" x="0px" y="0px" viewBox="0 0 100 125" enable-background="new 0 0 100 100" xml:space="preserve"><path fill="none" stroke="#000000" stroke-width="2" stroke-linecap="round" stroke-linejoin="round" stroke-miterlimit="10" d="  M53.231,42.015c1.708-2.035,4.271-3.328,7.135-3.328c5.143,0,9.312,4.169,9.312,9.312c0,1.286-0.261,2.511-0.732,3.625"/><line fill="none" stroke="#000000" stroke-width="2" stroke-linecap="round" stroke-linejoin="round" stroke-miterlimit="10" x1="52.803" y1="37.767" x2="49.803" y2="34.441"/><line fill="none" stroke="#000000" stroke-width="2" stroke-linecap="round" stroke-linejoin="round" stroke-miterlimit="10" x1="62.774" y1="34.869" x2="62.774" y2="31.021"/><line fill="none" stroke="#000000" stroke-width="2" stroke-linecap="round" stroke-linejoin="round" stroke-miterlimit="10" x1="70.977" y1="39.818" x2="74.224" y2="36.572"/><line fill="none" stroke="#000000" stroke-width="2" stroke-linecap="round" stroke-linejoin="round" stroke-miterlimit="10" x1="72.933" y1="47.222" x2="78.064" y2="47.222"/><path fill="none" stroke="#000000" stroke-width="2" stroke-linecap="round" stroke-linejoin="round" stroke-miterlimit="10" d="  M61.953,70.999c5.142,0,9.31-4.168,9.31-9.31s-4.168-9.31-9.31-9.31c-0.806,0-1.583,0.113-2.329,0.305  c-1.06-4.74-5.285-8.284-10.344-8.284c-5.234,0-9.571,3.794-10.439,8.779c-1.152-0.511-2.425-0.801-3.767-0.801  c-5.142,0-9.31,4.168-9.31,9.31s4.168,9.31,9.31,9.31"/><text x="0" y="115" fill="#000000" font-size="5px" font-weight="bold" font-family="'Helvetica Neue', Helvetica, Arial-Unicode, Arial, Sans-serif">Created by Nook Fulloption</text><text x="0" y="120" fill="#000000" font-size="5px" font-weight="bold" font-family="'Helvetica Neue', Helvetica, Arial-Unicode, Arial, Sans-serif">from the Noun Project</text></svg>