<?xml version="1.0" encoding="UTF-8" standalone="no"?>
<svg
   xmlns:dc="http://purl.org/dc/elements/1.1/"
   xmlns:cc="http://creativecommons.org/ns#"
   xmlns:rdf="http://www.w3.org/1999/02/22-rdf-syntax-ns#"
   xmlns:svg="http://www.w3.org/2000/svg"
   xmlns="http://www.w3.org/2000/svg"
   xmlns:sodipodi="http://sodipodi.sourceforge.net/DTD/sodipodi-0.dtd"
   xmlns:inkscape="http://www.inkscape.org/namespaces/inkscape"
   height="29.5"
   version="1.1"
   viewBox="0 0 27.801556 29.5"
   width="27.801556"
   id="svg239"
   sodipodi:docname="snowy.svg"
   inkscape:version="0.92.4 (33fec40, 2019-01-16)">
  <metadata
     id="metadata243">
    <rdf:RDF>
      <cc:Work
         rdf:about="">
        <dc:format>image/svg+xml</dc:format>
        <dc:type
           rdf:resource="http://purl.org/dc/dcmitype/StillImage" />
        <dc:title></dc:title>
      </cc:Work>
    </rdf:RDF>
  </metadata>
  <sodipodi:namedview
     pagecolor="#ffffff"
     bordercolor="#666666"
     borderopacity="1"
     objecttolerance="10"
     gridtolerance="10"
     guidetolerance="10"
     inkscape:pageopacity="0"
     inkscape:pageshadow="2"
     inkscape:window-width="1853"
     inkscape:window-height="1025"
     id="namedview241"
     showgrid="false"
     fit-margin-top="0"
     fit-margin-left="0"
     fit-margin-right="0"
     fit-margin-bottom="0"
     inkscape:zoom="7.375"
     inkscape:cx="14"
     inkscape:cy="19.923729"
     inkscape:window-x="67"
     inkscape:window-y="27"
     inkscape:window-maximized="1"
     inkscape:current-layer="Light-Snow" />
  <desc
     id="desc218" />
  <defs
     id="defs220" />
  <g
     id="Light-Snow"
     style="fill:none;fill-rule:evenodd;stroke:none;stroke-width:1"
     transform="translate(-2,-1)">
    <g
       id="Group-2"
       transform="translate(3,2)"
       style="stroke:#979797;stroke-width:2">
      <path
         d="M 9.6407582,4.5058329 C 8.762353,4.0865686 7.7789574,3.8518519 6.7407407,3.8518519 3.0179324,3.8518519 0,6.8697843 0,10.592593 c 0,3.722808 3.0179324,6.74074 6.7407407,6.74074 1.8392313,0 3.5064173,-0.736615 4.7226343,-1.930924"
         id="Oval"
         inkscape:connector-curvature="0" />
      <path
         d="m 9.9695675,13.543537 c 1.5601315,2.287784 4.1873195,3.789796 7.1653215,3.789796 4.786468,0 8.666667,-3.880198 8.666667,-8.6666663 C 25.801556,3.8801988 21.921357,0 17.134889,0 12.984256,0 9.5151069,2.9177787 8.6666667,6.8141107"
         id="path223"
         inkscape:connector-curvature="0"
         style="stroke-linecap:round" />
    </g>
    <polygon
       id="Star-2"
       points="8,27 7,25.267949 8,27 9,25.267949 8,27 10,27 8,27 9,28.732051 8,27 7,28.732051 8,27 6,27 "
       style="fill:#d8d8d8;stroke:#979797;stroke-linecap:round;stroke-linejoin:round"
       transform="translate(-0.13559322,-2.7118644)" />
    <polygon
       id="polygon234"
       points="15,23 13,23 15,23 14,21.267949 15,23 16,21.267949 15,23 17,23 15,23 16,24.732051 15,23 14,24.732051 "
       style="fill:#d8d8d8;stroke:#979797;stroke-linecap:round;stroke-linejoin:round" />
    <polygon
       id="polygon236"
       points="22,28 21,26.267949 22,28 23,26.267949 22,28 24,28 22,28 23,29.732051 22,28 21,29.732051 22,28 20,28 "
       style="fill:#d8d8d8;stroke:#979797;stroke-linecap:round;stroke-linejoin:round"
       transform="translate(-3.9661017,-0.27318606)" />
    <polygon
       transform="translate(6.1186441,0.31355937)"
       id="polygon234-3"
       points="16,21.267949 15,23 17,23 15,23 16,24.732051 15,23 14,24.732051 15,23 13,23 15,23 14,21.267949 15,23 "
       style="fill:#d8d8d8;fill-rule:evenodd;stroke:#979797;stroke-width:1;stroke-linecap:round;stroke-linejoin:round" />
    <polygon
       transform="translate(-2.4237288,5.3305085)"
       id="polygon234-6"
       points="16,21.267949 15,23 17,23 15,23 16,24.732051 15,23 14,24.732051 15,23 13,23 15,23 14,21.267949 15,23 "
       style="fill:#d8d8d8;fill-rule:evenodd;stroke:#979797;stroke-width:1;stroke-linecap:round;stroke-linejoin:round" />
  </g>
</svg>
