<svg xmlns="http://www.w3.org/2000/svg" xmlns:xlink="http://www.w3.org/1999/xlink" version="1.1" x="0px" y="0px" viewBox="0 0 100 125" enable-background="new 0 0 100 100" xml:space="preserve"><path fill="none" stroke="#000000" stroke-width="2" stroke-linecap="round" stroke-linejoin="round" stroke-miterlimit="10" d="  M64.186,54.767c5.142,0,9.31-4.168,9.31-9.31s-4.168-9.31-9.31-9.31c-0.806,0-1.583,0.113-2.329,0.305  c-1.06-4.74-5.285-8.284-10.344-8.284c-5.234,0-9.571,3.794-10.439,8.779c-1.152-0.511-2.425-0.801-3.767-0.801  c-5.142,0-9.31,4.168-9.31,9.31s4.168,9.31,9.31,9.31"/><g><circle fill="none" stroke="#000000" stroke-linecap="round" stroke-linejoin="round" stroke-miterlimit="10" cx="50.747" cy="62.907" r="1.277"/><line fill="none" stroke="#000000" stroke-linecap="round" stroke-linejoin="round" stroke-miterlimit="10" x1="50.747" y1="73.746" x2="50.747" y2="51.339"/><line fill="none" stroke="#000000" stroke-linecap="round" stroke-linejoin="round" stroke-miterlimit="10" x1="43.836" y1="62.907" x2="57.658" y2="62.907"/><line fill="none" stroke="#000000" stroke-linecap="round" stroke-linejoin="round" stroke-miterlimit="10" x1="43.535" y1="69.878" x2="57.785" y2="55.628"/><line fill="none" stroke="#000000" stroke-linecap="round" stroke-linejoin="round" stroke-miterlimit="10" x1="43.535" y1="55.628" x2="57.785" y2="69.878"/><polyline fill="none" stroke="#000000" stroke-linecap="round" stroke-linejoin="round" stroke-miterlimit="10" points="   57.785,58.473 55.221,58.473 55.221,55.628  "/><polyline fill="none" stroke="#000000" stroke-linecap="round" stroke-linejoin="round" stroke-miterlimit="10" points="   55.463,60.795 52.9,60.795 52.9,57.95  "/><path fill="none" stroke="#000000" stroke-linecap="round" stroke-linejoin="round" stroke-miterlimit="10" d="M55.221,67.314   h2.563H55.221z"/><line fill="none" stroke="#000000" stroke-linecap="round" stroke-linejoin="round" stroke-miterlimit="10" x1="55.221" y1="69.878" x2="55.221" y2="67.314"/><path fill="none" stroke="#000000" stroke-linecap="round" stroke-linejoin="round" stroke-miterlimit="10" d="M52.779,64.872   h2.563H52.779z"/><line fill="none" stroke="#000000" stroke-linecap="round" stroke-linejoin="round" stroke-miterlimit="10" x1="52.779" y1="67.435" x2="52.779" y2="64.872"/><path fill="none" stroke="#000000" stroke-linecap="round" stroke-linejoin="round" stroke-miterlimit="10" d="M46.098,67.314   h-2.563H46.098z"/><line fill="none" stroke="#000000" stroke-linecap="round" stroke-linejoin="round" stroke-miterlimit="10" x1="46.098" y1="69.878" x2="46.098" y2="67.314"/><path fill="none" stroke="#000000" stroke-linecap="round" stroke-linejoin="round" stroke-miterlimit="10" d="M48.549,64.864   h-2.563H48.549z"/><line fill="none" stroke="#000000" stroke-linecap="round" stroke-linejoin="round" stroke-miterlimit="10" x1="48.549" y1="67.427" x2="48.549" y2="64.864"/><polyline fill="none" stroke="#000000" stroke-linecap="round" stroke-linejoin="round" stroke-miterlimit="10" points="   43.535,58.473 46.38,58.473 46.38,55.628  "/><polyline fill="none" stroke="#000000" stroke-linecap="round" stroke-linejoin="round" stroke-miterlimit="10" points="   45.852,60.791 48.698,60.791 48.698,57.945  "/><polyline fill="none" stroke="#000000" stroke-linecap="round" stroke-linejoin="round" stroke-miterlimit="10" points="   47.895,53.492 50.747,55.628 53.588,53.492  "/><polyline fill="none" stroke="#000000" stroke-linecap="round" stroke-linejoin="round" stroke-miterlimit="10" points="   47.895,71.586 50.747,69.45 53.588,71.586  "/><polyline fill="none" stroke="#000000" stroke-linecap="round" stroke-linejoin="round" stroke-miterlimit="10" points="   41.7,65.754 43.836,62.902 41.7,60.061  "/><polyline fill="none" stroke="#000000" stroke-linecap="round" stroke-linejoin="round" stroke-miterlimit="10" points="   59.794,65.754 57.658,62.902 59.794,60.061  "/></g><text x="0" y="115" fill="#000000" font-size="5px" font-weight="bold" font-family="'Helvetica Neue', Helvetica, Arial-Unicode, Arial, Sans-serif">Created by Nook Fulloption</text><text x="0" y="120" fill="#000000" font-size="5px" font-weight="bold" font-family="'Helvetica Neue', Helvetica, Arial-Unicode, Arial, Sans-serif">from the Noun Project</text></svg>